# Blender 4.1.1
# www.blender.org
mtllib Waluigi_SM64DS.mtl
o Waluigi
v 9.934669 17.588610 -0.821301
v 10.127325 18.160967 -1.280215
v 10.475825 18.671974 -1.045880
v 10.453778 17.780382 -0.780113
v 9.967901 17.563156 0.366161
v 9.836521 18.670504 0.784389
v 10.127242 18.159172 0.862917
v 10.127300 19.075371 0.649253
v 10.474957 17.802254 0.385636
v 10.467319 18.714769 0.752779
v 11.645565 19.026276 1.331105
v 11.204044 17.778765 1.403095
v 10.447910 19.258606 -0.152542
v 11.508523 18.879070 -1.508246
v 10.127368 19.076521 -1.064070
v 12.689994 18.878771 -1.473029
v 12.905369 19.246925 0.175159
v 13.090939 18.021172 1.228568
v 13.328803 18.097616 0.241291
v 12.734694 18.994886 1.310380
v 13.069149 18.030525 -1.227160
v 12.271885 17.608156 -1.311483
v 12.436037 17.244059 0.207203
v 11.169620 17.646639 -1.295121
v 11.827560 17.045559 0.978293
v 11.030903 17.055260 0.995635
v 9.836596 18.684875 -1.081983
v 9.937434 19.413944 -0.157371
v 0.494416 21.445719 2.745395
v 0.573165 21.749422 3.235291
v 0.103208 21.895969 2.912282
v 0.000266 22.334827 2.716335
v 0.211413 22.263010 3.586633
v -0.266848 22.150576 3.853117
v -0.572738 21.749477 3.235237
v -0.449498 21.496752 3.571223
v -0.602786 21.241968 3.065133
v -0.493971 21.445766 2.745348
v 0.000177 21.181633 3.425957
v 0.603181 21.241911 3.065191
v 0.449869 21.496708 3.571266
v 0.279502 21.685303 4.278878
v 0.000104 20.666323 4.423764
v -0.217052 21.355368 4.384406
v -0.102736 21.895979 2.912272
v 0.137262 1.428465 1.088484
v 0.238681 1.189196 -1.195155
v 0.387853 7.621066 0.093280
v 1.272256 1.174073 -1.552841
v 2.298008 1.410483 1.038730
v 1.149656 7.381136 0.615476
v 1.686771 7.620998 0.138807
v 1.443336 8.252075 -0.400624
v 2.112870 13.300870 0.325557
v 1.679543 8.702635 0.825510
v 2.395925 1.158939 -1.280032
v 0.560997 8.292867 -0.457112
v 1.145046 4.294465 -1.262645
v 1.429140 12.974822 -0.955750
v 0.381803 8.697415 0.884854
v -0.000077 12.521109 0.063742
v 0.438144 13.035458 1.353593
v -1.428040 12.987563 -0.957700
v 0.000060 13.982453 -1.336394
v -1.545743 14.071185 -1.016718
v -1.400716 15.221723 -0.606135
v -1.674698 15.138887 0.819070
v -1.706602 17.158604 1.802868
v -0.000025 15.002496 1.461526
v -1.335442 13.959653 1.520813
v -1.827526 17.325060 -0.922980
v -2.227441 17.404707 0.407834
v -5.852650 17.988907 0.219520
v -2.459421 18.610983 0.642349
v -2.020662 18.650221 0.975804
v -3.173893 17.715837 -0.772134
v -6.037064 18.008654 -0.896835
v -3.192837 18.410315 -1.042042
v -5.361742 18.930578 -0.830185
v -1.486119 18.814255 -1.177267
v -2.166262 19.374262 -0.486947
v -3.155347 19.073624 -0.166087
v -5.879692 18.807335 0.212644
v -6.177421 18.810328 -0.706794
v -8.461702 18.498383 0.623854
v -8.454737 19.185179 -0.155783
v -10.094063 18.985691 -0.184945
v -10.093933 18.527254 -0.926343
v -10.094059 17.883900 -0.216045
v -8.462784 17.724297 -0.240798
v -10.094107 18.521673 0.525372
v -6.020725 18.465927 -1.104677
v -1.027439 19.315067 0.118923
v 0.000295 19.244907 -0.960870
v 1.486687 18.814110 -1.177124
v 0.000311 19.858078 -0.695165
v 1.001874 19.713152 -0.170773
v 1.027933 19.314968 0.119027
v -1.001316 19.713247 -0.170869
v 2.021009 18.650026 0.975998
v 2.166782 19.374052 -0.486738
v 2.459759 18.610756 0.642592
v 2.227723 17.404493 0.408048
v 5.845246 17.988379 0.223866
v 3.155811 19.073360 -0.165755
v 3.193376 18.410051 -1.041707
v 5.362281 18.930199 -0.829577
v 5.886074 18.806057 0.217586
v 6.037560 18.008236 -0.896143
v 6.021275 18.465513 -1.103987
v 6.177929 18.809900 -0.706093
v 10.094448 18.526619 -0.925242
v 8.455208 19.184635 -0.154854
v 8.462059 18.497845 0.624789
v 10.094527 18.985062 -0.183848
v 10.094474 18.521049 0.526473
v 10.094466 17.883270 -0.214941
v 8.463186 17.723753 -0.239858
v 3.174361 17.715574 -0.771803
v 1.827927 17.324884 -0.922804
v 1.400886 15.221588 -0.606001
v 1.674723 15.138727 0.819230
v 0.000227 17.418228 -1.379092
v 0.000101 15.303752 -0.875855
v 1.545842 14.071038 -1.016569
v 1.706726 17.158440 1.803031
v 1.335286 13.959525 1.520941
v -0.438373 13.035500 1.353551
v -0.382395 8.697453 0.884819
v -1.680129 8.702795 0.825352
v -0.388472 7.621104 0.093245
v -0.138578 1.428477 1.088474
v -0.239799 1.189218 -1.195175
v -0.561500 8.292921 -0.457163
v -1.150347 7.381246 0.615369
v -2.299321 1.410705 1.038511
v -1.687395 7.621160 0.138649
v -1.443848 8.252207 -0.400760
v -2.397038 1.159170 -1.280260
v -2.112974 13.301071 0.325354
v -1.145857 4.294575 -1.262752
v -1.273341 1.174196 -1.552961
v 0.000193 18.905092 0.809903
v 0.695902 19.320366 0.897769
v -0.695484 19.320435 0.897703
v 1.319841 20.863045 0.125295
v 1.540612 21.212582 -0.262717
v 1.716454 20.694183 -1.030620
v 1.263942 20.389921 -0.675121
v 0.692649 19.971823 -0.847247
v 0.000302 19.865271 -0.508264
v 1.700297 20.624222 0.383382
v 1.595483 19.774519 0.510631
v 0.870369 19.835121 0.428638
v 2.382581 20.593454 -0.145906
v 0.000239 18.509546 -0.534533
v -0.869857 19.835203 0.428555
v -1.319201 20.863173 0.125168
v 0.000157 17.823868 0.471196
v 0.000221 19.571255 0.893698
v 0.925390 19.266834 1.603177
v -0.925045 19.266924 1.603088
v -1.594985 19.774670 0.510478
v -1.574433 19.567312 1.612661
v -1.124459 19.474148 2.092373
v 0.507958 17.998766 2.698145
v -0.507840 17.998814 2.698096
v 0.299653 18.111551 3.262974
v -0.299578 18.111580 3.262945
v 0.000125 19.991869 3.312820
v -0.882141 19.818823 2.961135
v -0.620249 20.263596 3.113921
v -1.696101 20.043695 1.360074
v 1.696543 20.043533 1.360237
v -1.699705 20.624386 0.383219
v -1.887280 21.020817 1.136193
v 1.887838 21.020634 1.136374
v 0.987925 20.762482 2.572393
v -1.144598 21.532782 2.695066
v -1.749355 21.860516 1.853113
v -2.204743 22.009386 0.858108
v -0.987530 20.762575 2.572299
v 0.000190 21.210665 3.188283
v 0.000171 20.728045 3.098297
v 1.145055 21.532669 2.695176
v -0.353946 21.490622 2.825013
v 0.354387 21.490585 2.825047
v 1.749925 21.860348 1.853281
v 2.205423 22.009176 0.858320
v 2.105302 22.873831 1.247870
v 2.432278 24.203751 2.456801
v 1.929460 23.039333 1.767660
v 2.147400 22.542843 0.208275
v 3.305074 22.131416 -1.031517
v 2.605443 21.353630 -0.289670
v 1.796069 22.239391 -0.712231
v 2.496011 23.593904 0.436315
v 1.897977 22.888395 -1.487936
v 3.450720 23.490686 -1.379602
v 0.000570 24.010574 -1.939142
v 0.000509 22.670000 -2.012252
v 0.000444 21.860447 -1.474724
v 1.925931 24.187326 -0.057098
v 1.766036 25.574791 1.616969
v 0.000514 24.546562 -0.234165
v -1.765088 25.574961 1.616800
v 0.000529 26.143057 1.041605
v -1.924955 24.187513 -0.057283
v -2.495139 23.594145 0.436075
v -1.896989 22.888578 -1.488117
v -1.795217 22.239565 -0.712404
v -2.146607 22.543049 0.208070
v -2.431542 24.203983 2.456568
v -3.449684 23.491018 -1.379933
v -3.304202 22.131733 -1.031834
v -2.604717 21.353878 -0.289920
v -2.104578 22.874033 1.247668
v -1.928770 23.039518 1.767475
v -1.663642 22.718573 3.595271
v 0.000297 23.632238 3.365114
v 0.000208 22.862000 4.447026
v 0.000374 23.638340 1.767547
v -1.487997 24.620024 3.384189
v 0.000428 26.093340 3.093408
v 0.000339 24.794771 3.648437
v 1.488685 24.619881 3.384331
v 0.000479 26.345491 2.283407
v 1.664127 22.718414 3.595430
v -2.381941 20.593683 -0.146134
v -1.539901 21.212730 -0.262864
v -0.706315 20.829689 -0.801937
v -1.715720 20.694347 -1.030784
v -1.263271 20.390041 -0.675242
v -0.692001 19.971888 -0.847314
v -1.142409 20.411381 -1.342728
v -0.507837 20.246851 -1.527726
v 0.707040 20.829624 -0.801869
v 1.143146 20.411274 -1.342619
v 0.508576 20.246801 -1.527677
v 0.882183 19.818918 2.961578
v 0.620545 20.263538 3.113980
v 1.574806 19.567162 1.612812
v 1.124776 19.474041 2.092480
v -2.071527 -0.000048 2.589824
v -2.066461 0.005060 -1.050886
v -2.240515 0.531501 2.534170
v -0.310030 -0.000133 2.589877
v -1.190696 0.455884 3.589355
v -0.141226 0.531821 2.534155
v -1.190897 1.607984 3.848346
v -1.190835 1.162756 2.230362
v -1.729328 1.853158 -1.287871
v -0.651923 1.853211 -1.215459
v -1.178447 0.031066 -1.539351
v -0.311905 0.006929 -1.060265
v 0.308431 -0.000162 2.589904
v 0.310382 0.007700 -1.054106
v 0.139684 0.531808 2.534165
v 2.069927 -0.000247 2.590020
v 1.189044 0.455770 3.589467
v 1.189332 1.607870 3.848458
v 2.238972 0.531286 2.534383
v 1.728282 1.852992 -1.287708
v 2.064979 0.004449 -1.056239
v 1.189384 1.162642 2.230474
v 0.650871 1.853149 -1.215400
v 1.188764 0.031321 -1.539094
v -2.553818 23.004078 1.116358
v -1.478873 21.066469 2.465055
v -1.654346 20.685600 2.268756
v -0.305107 21.223722 3.139741
v -0.379482 20.934586 3.088040
v 1.554077 21.162210 1.153593
v 1.353744 20.517124 1.176549
v 1.068335 21.097660 2.449522
v 1.105326 21.169044 1.133637
v 0.745978 21.111172 2.227217
v 1.026163 20.518379 1.152861
v 0.858233 20.457821 2.192614
v 0.000165 20.420498 2.917093
v -0.745516 21.111242 2.227146
v -1.104753 21.169151 1.133531
v -1.025655 20.518476 1.152762
v -1.553506 21.162359 1.153444
v -1.353238 20.517254 1.176419
v -0.840015 20.456274 2.226528
v -1.067896 21.097761 2.449419
v 0.000188 21.060444 3.083350
v 1.248597 19.774734 1.004965
v 1.041872 20.507597 1.078762
v 0.725032 19.891117 2.154805
v -0.724680 19.891190 2.154737
v 0.851957 20.463074 2.246556
v -0.869205 20.465315 2.211876
v -1.041358 20.507696 1.078662
v -1.420851 20.507011 1.093541
v 0.000165 20.421129 2.919003
v -1.035848 19.915564 2.388832
v 0.000138 19.986090 3.045518
v 1.036180 19.915466 2.388932
v 1.421364 20.506874 1.093677
v -1.248125 19.774860 1.004653
v 2.554568 23.003834 1.116603
v 1.479309 21.066328 2.465197
v 1.654764 20.685442 2.268914
v 0.305493 21.223696 3.139771
v 0.379845 20.934551 3.088076
v -9.936951 19.414566 -0.158449
v -10.126917 19.075998 0.648153
v -10.466966 18.715412 0.751643
v -10.447437 19.259254 -0.153673
v -10.126810 19.077158 -1.065170
v -9.836059 18.685499 -1.083056
v -9.836176 18.671114 0.783316
v -10.126929 18.159796 0.861811
v -9.934216 17.589235 -0.822392
v -10.126796 18.161608 -1.281321
v -10.475292 18.672630 -1.047019
v -10.453319 17.781034 -0.781255
v -11.169116 17.647335 -1.296337
v -11.507933 18.879784 -1.509487
v -12.271382 17.608910 -1.312811
v -12.689408 18.879547 -1.474390
v -13.068629 18.031319 -1.228566
v -12.904929 19.247704 0.173778
v -13.328430 18.098413 0.239859
v -13.090672 18.021952 1.227160
v -12.734384 18.995647 1.309015
v -11.645256 19.026978 1.329851
v -11.203807 17.779444 1.401877
v -11.827318 17.046272 0.977006
v -12.435706 17.244810 0.205856
v -11.030663 17.055931 0.994429
v -10.474618 17.802902 0.384492
v -9.967570 17.563776 0.365067
v 1.145057 21.532669 2.695176
v 0.354389 21.490585 2.825047
v 1.749926 21.860348 1.853281
v 0.000238 22.286325 3.288453
v 1.929462 23.039333 1.767660
v 2.105304 22.873831 1.247870
v 0.000308 23.547689 3.100646
v -1.928768 23.039518 1.767475
v -2.104576 22.874033 1.247668
v -1.749353 21.860516 1.853113
v -0.353944 21.490622 2.825013
v -1.144596 21.532782 2.695066
vn 0.8498 -0.4728 -0.2329
vn 0.1800 -0.2851 -0.9414
vn 0.3485 -0.9368 -0.0298
vn -0.9916 -0.1271 0.0250
vn -0.7237 -0.3173 0.6129
vn 0.1351 0.2250 0.9649
vn -0.0556 0.2268 0.9724
vn 0.6692 -0.2725 0.6913
vn 0.2833 -0.6576 0.6981
vn 0.7029 0.6996 0.1282
vn 0.2487 0.8326 0.4948
vn -0.7930 -0.2331 0.5629
vn -0.4758 0.2176 0.8522
vn -0.4341 0.7681 0.4707
vn 0.2817 0.9170 -0.2823
vn -0.3843 0.7661 -0.5151
vn 0.0081 0.9646 -0.2637
vn 0.9350 0.0814 -0.3451
vn -0.6372 0.6349 -0.4368
vn 0.0343 0.9744 -0.2221
vn -0.0178 0.9855 0.1687
vn 0.9051 0.3476 0.2450
vn 0.9237 0.3203 0.2100
vn 0.0323 0.9747 0.2213
vn 0.9265 0.3310 -0.1789
vn 0.9150 0.3516 -0.1981
vn 0.2015 -0.1885 -0.9612
vn 0.4736 -0.8435 -0.2534
vn 0.6901 -0.7182 -0.0892
vn -0.2295 -0.9710 -0.0668
vn -0.0374 -0.9727 -0.2292
vn 0.5629 -0.7907 0.2407
vn 0.6847 -0.7206 0.1092
vn -0.0963 -0.9429 -0.3188
vn -0.0194 -0.9278 -0.3726
vn 0.0129 -0.4930 0.8699
vn -0.8119 -0.5833 0.0257
vn -0.8073 -0.1309 0.5755
vn -0.0555 -0.1800 0.9821
vn 0.4646 -0.1137 0.8782
vn -0.5965 -0.2157 -0.7731
vn -0.4001 -0.0482 -0.9152
vn -0.0204 -0.1649 -0.9861
vn 0.0295 -0.1356 -0.9903
vn 0.0167 -0.0776 0.9968
vn -0.7393 0.5656 -0.3654
vn -0.2421 0.2229 -0.9443
vn -0.9907 0.1358 0.0010
vn -0.6669 0.6180 0.4164
vn -0.9960 -0.0893 -0.0007
vn -0.7801 -0.2099 -0.5893
vn 0.4262 -0.9046 0.0092
vn 0.5524 0.6658 -0.5016
vn 0.4920 -0.2561 -0.8321
vn 0.7649 0.6301 -0.1336
vn -0.1631 0.9792 0.1204
vn -0.9136 0.0836 0.3980
vn -0.9489 -0.0483 0.3117
vn -0.9611 0.1372 -0.2396
vn 0.2000 -0.8557 -0.4773
vn -0.0000 -0.9323 -0.3618
vn -0.2000 -0.8557 -0.4773
vn 0.9612 0.1371 -0.2395
vn 0.9489 -0.0484 0.3118
vn 0.9577 -0.1187 0.2622
vn 0.8644 0.4246 0.2693
vn 0.1667 0.7650 0.6220
vn 0.3797 -0.7750 0.5052
vn 0.6105 -0.7037 -0.3634
vn 0.9346 -0.2161 0.2826
vn 0.1421 0.1010 0.9847
vn -0.9343 -0.2820 0.2180
vn -0.6105 -0.7037 -0.3635
vn -0.3798 -0.7749 0.5052
vn -0.9458 0.1374 0.2942
vn -0.1828 0.5382 0.8227
vn -0.7417 0.6675 -0.0661
vn -0.4920 -0.2560 -0.8321
vn -0.5522 0.6659 -0.5016
vn 0.0218 -0.9942 0.1051
vn -0.9983 0.0327 -0.0478
vn -0.5247 0.1557 0.8369
vn -0.0061 -0.9956 0.0933
vn 0.0236 0.0752 0.9969
vn 0.6097 0.1721 0.7737
vn 0.8864 -0.0514 -0.4601
vn 0.9879 -0.0785 0.1341
vn 0.7032 -0.3777 0.6023
vn 0.9943 0.1023 0.0309
vn 0.9562 0.1589 -0.2457
vn 0.0720 0.2071 -0.9757
vn 0.4028 0.1657 -0.9001
vn -0.4512 0.1125 -0.8853
vn -0.3252 0.0744 -0.9427
vn 0.2360 0.0995 -0.9666
vn -0.9723 0.0674 -0.2237
vn -0.9792 0.1165 -0.1659
vn 0.0581 -0.1164 -0.9915
vn -0.5852 0.0222 -0.8106
vn -0.9882 -0.1193 -0.0960
vn -0.0038 -0.9116 -0.4110
vn -0.9437 -0.0234 0.3299
vn -0.0009 -0.3546 -0.9350
vn -0.2061 -0.0755 -0.9756
vn -0.8877 -0.1206 -0.4444
vn -0.1704 0.3502 -0.9211
vn -0.9671 0.1844 -0.1752
vn -0.9307 0.2839 -0.2305
vn -0.9327 -0.1698 0.3183
vn -0.3552 -0.4139 0.8382
vn -0.2938 0.4250 0.8562
vn -0.8523 0.0638 0.5192
vn -0.9547 -0.2233 -0.1965
vn -0.9256 -0.2733 -0.2618
vn -0.2814 -0.9592 -0.0272
vn -0.0838 -0.2057 0.9750
vn -0.1506 -0.9790 -0.1373
vn -0.9370 -0.0037 0.3492
vn -0.5692 -0.2610 0.7797
vn -0.2063 -0.3593 -0.9101
vn -0.1017 -0.9948 -0.0008
vn 0.0036 -0.3622 -0.9321
vn -0.0405 -0.1592 -0.9864
vn -0.0677 0.1212 -0.9903
vn 0.1301 0.7878 -0.6021
vn -0.2112 0.6469 -0.7328
vn -0.4004 0.7387 -0.5422
vn -0.0868 0.9935 0.0743
vn -0.0140 0.8626 0.5057
vn -0.0772 0.8352 0.5445
vn -0.1244 0.0042 0.9922
vn -0.1386 0.9892 0.0481
vn 0.1514 0.9874 -0.0458
vn 0.0155 0.7502 0.6610
vn 0.1557 0.0134 0.9877
vn -0.0217 0.7826 -0.6221
vn -0.1026 0.7469 0.6570
vn -0.0937 0.8468 -0.5236
vn -0.0907 -0.7467 -0.6589
vn 0.0373 0.2367 -0.9709
vn -0.0824 -0.7386 -0.6690
vn -0.0421 -0.7444 0.6664
vn -0.0626 -0.7435 0.6657
vn 0.1069 -0.9936 -0.0352
vn -0.0501 -0.7572 0.6513
vn -0.0210 0.8370 0.5468
vn -0.9520 -0.0979 -0.2902
vn 0.5630 -0.3586 -0.7446
vn -0.2066 0.6980 -0.6856
vn -0.2252 0.8333 0.5048
vn 0.2731 0.8609 -0.4293
vn -0.3219 0.8915 0.3186
vn -0.2295 0.9324 -0.2790
vn -0.6754 -0.4044 -0.6166
vn 0.0001 0.4488 -0.8936
vn 0.2296 0.9324 -0.2790
vn -0.4736 0.3502 -0.8081
vn 0.4737 0.3501 -0.8081
vn 0.6755 -0.4045 -0.6165
vn -0.2730 0.8609 -0.4293
vn 0.3219 0.8915 0.3187
vn 0.2253 0.8333 0.5048
vn 0.0828 -0.2055 0.9751
vn 0.5691 -0.2611 0.7797
vn 0.1230 0.0015 0.9924
vn 0.0772 0.8352 0.5445
vn 0.0135 0.8628 0.5054
vn -0.1300 0.7878 -0.6021
vn 0.4005 0.7387 -0.5422
vn 0.0868 0.9934 0.0743
vn 0.0678 0.1212 -0.9903
vn 0.1386 0.9892 0.0479
vn -0.5629 -0.3585 -0.7447
vn 0.2067 0.6980 -0.6856
vn -0.0372 0.2367 -0.9709
vn 0.9520 -0.0979 -0.2900
vn 0.0218 0.7826 -0.6221
vn -0.1519 0.9874 -0.0439
vn 0.1025 0.7469 0.6570
vn -0.0147 0.7502 0.6610
vn 0.0938 0.8468 -0.5236
vn 0.0210 0.8370 0.5468
vn 0.0500 -0.7572 0.6513
vn 0.0824 -0.7387 -0.6690
vn 0.0625 -0.7435 0.6658
vn 0.0907 -0.7467 -0.6589
vn 0.0428 -0.7443 0.6664
vn -0.1068 -0.9936 -0.0360
vn -0.1543 0.0153 0.9879
vn 0.1017 -0.9948 -0.0002
vn -0.0035 -0.3622 -0.9321
vn 0.2063 -0.3594 -0.9101
vn 0.1510 -0.9790 -0.1369
vn 0.2814 -0.9592 -0.0271
vn 0.2286 -0.1902 -0.9547
vn 0.9547 -0.2234 -0.1964
vn 0.9256 -0.2734 -0.2617
vn 0.0406 -0.1592 -0.9864
vn 0.2354 -0.1110 -0.9655
vn 0.0001 0.1431 -0.9897
vn -0.2286 -0.1902 -0.9548
vn -0.2353 -0.1109 -0.9656
vn -0.1712 -0.2281 -0.9585
vn 0.1713 -0.2281 -0.9585
vn 0.1973 0.3227 -0.9257
vn -0.1971 0.3227 -0.9258
vn 0.9308 0.2838 -0.2304
vn 0.9671 0.1843 -0.1751
vn 0.9326 -0.1699 0.3184
vn 0.3551 -0.4139 0.8382
vn 0.2938 0.4249 0.8562
vn 0.8522 0.0637 0.5193
vn 0.8334 -0.0185 0.5523
vn 0.0458 -0.1281 0.9907
vn -0.0756 -0.1061 0.9915
vn -0.0001 -0.1781 0.9840
vn -0.0000 0.0568 0.9984
vn 0.0755 -0.1062 0.9915
vn 0.9437 -0.0235 0.3300
vn -0.0001 -0.9289 0.3704
vn 0.9882 -0.1194 -0.0959
vn 0.9793 0.1164 -0.1658
vn -0.0459 -0.1281 0.9907
vn -0.0458 -0.1746 0.9836
vn 0.5939 -0.4789 0.6466
vn 0.5246 0.1557 0.8370
vn 0.9983 0.0326 -0.0477
vn 0.9724 0.0673 -0.2236
vn -0.0237 0.0752 0.9969
vn -0.6098 0.1722 0.7736
vn -0.9562 0.1590 -0.2458
vn -0.9943 0.1024 0.0308
vn -0.8863 -0.0513 -0.4602
vn -0.9879 -0.0784 0.1340
vn -0.7033 -0.3776 0.6023
vn -0.8862 -0.0512 -0.4605
vn -0.0580 -0.1164 -0.9915
vn -0.2359 0.0995 -0.9667
vn -0.4027 0.1657 -0.9002
vn 0.0390 -0.9936 0.1061
vn 0.3253 0.0744 -0.9427
vn 0.0060 -0.9956 0.0933
vn -0.0219 -0.9942 0.1051
vn 0.4513 0.1124 -0.8853
vn -0.0719 0.2071 -0.9757
vn -0.8335 -0.0184 0.5522
vn 0.5864 0.0219 -0.8097
vn 0.8882 -0.1192 -0.4437
vn 0.9370 -0.0038 0.3493
vn -0.0001 -0.1564 0.9877
vn -0.0000 0.4943 0.8693
vn -0.0104 0.4866 0.8736
vn 0.0104 0.4866 0.8736
vn -0.4813 -0.8508 0.2110
vn -0.0565 0.8195 0.5703
vn 0.0566 0.8195 0.5703
vn 0.4812 -0.8508 0.2111
vn -0.0001 -0.2069 0.9784
vn -0.0000 0.9386 0.3450
vn -0.8706 0.3256 0.3689
vn 0.8706 0.3255 0.3689
vn 0.1705 0.3502 -0.9210
vn 0.2062 -0.0761 -0.9755
vn 0.2113 0.6469 -0.7328
vn -0.0000 0.9639 0.2663
vn -0.5940 -0.4788 0.6465
vn 0.0457 -0.1746 0.9836
vn 0.8865 -0.0514 -0.4600
vn -0.0391 -0.9936 0.1061
vn -0.3372 -0.5960 -0.7288
vn 0.9179 -0.1980 0.3439
vn 0.6917 -0.6418 0.3311
vn 0.4438 -0.7847 0.4328
vn 0.3626 -0.7917 0.4917
vn 0.4220 0.0175 -0.9064
vn -0.3137 -0.8814 -0.3532
vn 0.4683 -0.1871 -0.8635
vn 0.0807 -0.3144 -0.9459
vn 0.8782 -0.4396 -0.1884
vn -0.8831 -0.3876 -0.2643
vn -0.8782 -0.4395 -0.1885
vn -0.4219 0.0176 -0.9065
vn 0.8831 -0.3877 -0.2642
vn -0.5087 -0.2023 0.8368
vn 0.5086 -0.2024 0.8369
vn 0.0391 -0.8988 -0.4367
vn -0.0000 -0.9190 -0.3943
vn -0.0392 -0.8988 -0.4367
vn -0.0000 -0.6536 -0.7569
vn 0.0261 -0.9003 -0.4344
vn -0.4163 -0.8949 -0.1606
vn -0.4079 -0.8885 0.2101
vn -0.8814 -0.4395 -0.1731
vn -0.8997 -0.2217 0.3760
vn -0.0001 -0.9806 0.1958
vn -0.9038 -0.2465 0.3499
vn -0.0000 0.1741 0.9847
vn -0.0003 0.1739 0.9848
vn -0.0001 -0.8972 0.4416
vn -0.3484 -0.1144 0.9303
vn -0.8236 0.3254 0.4644
vn -0.8906 0.0136 0.4547
vn -0.6015 -0.6708 0.4339
vn -0.9643 -0.2630 -0.0315
vn -0.9882 -0.1331 -0.0755
vn -0.0000 0.2233 0.9747
vn 0.0001 0.9922 -0.1244
vn -0.9677 -0.2182 -0.1262
vn -0.9445 -0.3218 -0.0658
vn -0.0000 -0.9842 -0.1770
vn -0.8404 -0.2482 0.4819
vn -0.8281 -0.2791 0.4862
vn -0.9042 -0.1816 0.3866
vn -0.4682 -0.1619 0.8686
vn -0.4387 -0.2280 0.8692
vn -0.0000 -0.9979 -0.0654
vn 0.4681 -0.1620 0.8687
vn 0.4386 -0.2281 0.8693
vn 0.0662 0.7581 0.6488
vn -0.0662 0.7581 0.6488
vn 0.8280 -0.2791 0.4863
vn 0.8403 -0.2483 0.4820
vn 0.9041 -0.1817 0.3867
vn 0.9109 -0.0772 0.4054
vn 0.7161 -0.5577 0.4198
vn 0.9182 -0.3653 0.1535
vn 0.9936 0.1132 0.0042
vn 0.7301 -0.0049 0.6834
vn 0.7427 0.0903 0.6635
vn 0.6344 -0.0777 0.7691
vn 0.8946 -0.3935 -0.2117
vn -0.6101 0.7918 -0.0282
vn 0.9321 -0.3376 0.1313
vn 0.9285 -0.2421 -0.2816
vn 0.9430 -0.2707 -0.1938
vn -0.2170 -0.2203 -0.9510
vn 0.2603 0.0526 -0.9641
vn 0.5118 0.6311 -0.5829
vn 0.2819 -0.5307 -0.7993
vn 0.3918 -0.7303 -0.5596
vn 0.8038 0.4326 -0.4084
vn 0.1990 0.7638 -0.6140
vn 0.8029 0.4944 -0.3331
vn 0.2014 0.9344 -0.2937
vn -0.1988 0.7638 -0.6140
vn -0.4144 0.5681 -0.7110
vn 0.4145 0.5681 -0.7109
vn -0.2012 0.9345 -0.2938
vn -0.8028 0.4945 -0.3331
vn -0.8037 0.4327 -0.4085
vn -0.5117 0.6311 -0.5829
vn -0.9430 -0.2706 -0.1939
vn -0.3918 -0.7303 -0.5596
vn -0.2819 -0.5307 -0.7993
vn -0.8946 -0.3934 -0.2118
vn -0.2603 0.0526 -0.9641
vn -0.9182 -0.3652 0.1534
vn -0.9321 -0.3375 0.1312
vn -0.7427 0.0904 0.6634
vn 0.6102 0.7917 -0.0281
vn -0.6345 -0.0776 0.7690
vn -0.9285 -0.2420 -0.2817
vn -0.7301 -0.0049 0.6833
vn -0.9936 0.1132 0.0041
vn -0.7162 -0.5576 0.4197
vn -0.9109 -0.0771 0.4054
vn -0.4190 -0.5896 0.6906
vn 0.1832 -0.9634 -0.1957
vn -0.4466 0.8680 0.2172
vn -0.3910 -0.6026 0.6957
vn 0.2857 -0.9205 -0.2667
vn -0.6820 0.5934 0.4275
vn -0.5796 0.6755 0.4558
vn -0.2050 0.3847 0.9000
vn -0.1432 -0.2343 0.9616
vn 0.2049 0.3847 0.9000
vn 0.1431 -0.2344 0.9616
vn 0.5796 0.6754 0.4559
vn 0.6820 0.5933 0.4276
vn 0.4188 -0.5896 0.6906
vn 0.3909 -0.6026 0.6957
vn -0.4675 0.8440 0.2627
vn 0.4676 0.8440 0.2628
vn -0.3470 0.9256 -0.1509
vn 0.3471 0.9256 -0.1509
vn -0.2858 -0.9204 -0.2667
vn -0.3446 0.7648 0.5444
vn 0.3446 0.7647 0.5445
vn -0.1833 -0.9634 -0.1958
vn 0.4466 0.8679 0.2172
vn -0.6119 -0.0298 0.7904
vn 0.0003 -0.1858 -0.9826
vn 0.2089 -0.5700 -0.7946
vn -0.0308 -0.4073 -0.9128
vn -0.9179 -0.1979 0.3438
vn 0.3372 -0.5960 -0.7287
vn 0.0165 0.8270 -0.5620
vn -0.6214 -0.4387 -0.6492
vn -0.6918 -0.6418 0.3310
vn 0.2541 -0.5510 -0.7949
vn -0.4440 -0.7846 0.4328
vn -0.6296 0.7718 -0.0893
vn -0.6115 -0.7796 -0.1356
vn 0.7595 0.0470 -0.6488
vn -0.3627 -0.7917 0.4916
vn 0.0360 -0.9299 -0.3660
vn -0.9650 -0.0022 -0.2621
vn 0.8182 0.5364 -0.2070
vn -0.0000 -0.5466 -0.8374
vn -0.0000 -0.2913 -0.9566
vn -0.4242 -0.2728 -0.8635
vn 0.6214 -0.4388 -0.6491
vn -0.0164 0.8270 -0.5620
vn -0.2541 -0.5509 -0.7949
vn 0.6296 0.7717 -0.0893
vn -0.7594 0.0471 -0.6489
vn 0.9651 -0.0023 -0.2620
vn -0.8181 0.5365 -0.2071
vn 0.4242 -0.2728 -0.8635
vn -0.0361 -0.9299 -0.3660
vn 0.6114 -0.7796 -0.1356
vn 0.3137 -0.8814 -0.3531
vn 0.2171 -0.2203 -0.9510
vn -0.9162 0.3908 -0.0891
vn 0.9162 0.3907 -0.0890
vn 0.0308 -0.4073 -0.9128
vn -0.2089 -0.5700 -0.7946
vn -0.0003 -0.1857 -0.9826
vn 0.6118 -0.0299 0.7904
vn 0.9445 -0.3219 -0.0658
vn 0.9677 -0.2183 -0.1261
vn -0.4683 -0.1870 -0.8636
vn 0.8905 0.0135 0.4548
vn 0.8236 0.3254 0.4645
vn 0.9643 -0.2631 -0.0314
vn 0.9882 -0.1332 -0.0754
vn 0.6014 -0.6707 0.4340
vn 0.4078 -0.8886 0.2101
vn 0.4163 -0.8950 -0.1606
vn 0.9037 -0.2465 0.3501
vn 0.8997 -0.2218 0.3761
vn 0.8814 -0.4395 -0.1730
vn 0.3482 -0.1141 0.9305
vn -0.0000 0.5906 0.8069
vn -0.0806 -0.3144 -0.9459
vn -0.0261 -0.9003 -0.4344
vn -0.0000 -1.0000 -0.0014
vn -0.9529 -0.3031 -0.0018
vn -0.7061 -0.1521 0.6916
vn -0.0001 -0.9098 0.4151
vn -0.7058 -0.1555 0.6911
vn 0.7063 -0.1517 0.6915
vn 0.7060 -0.1552 0.6910
vn -0.5489 0.8059 -0.2218
vn 0.5487 0.8061 -0.2218
vn -0.4491 0.8613 0.2378
vn -0.0131 0.9808 0.1945
vn 0.4473 0.8609 0.2425
vn 0.0662 0.1560 -0.9855
vn 0.4841 0.0156 -0.8749
vn 0.9820 0.1748 -0.0722
vn 0.0011 -1.0000 -0.0019
vn 0.0008 -0.9987 -0.0517
vn 0.9531 -0.3026 -0.0011
vn -0.9828 0.1700 -0.0727
vn -0.4813 -0.0246 -0.8762
vn -0.0019 -1.0000 -0.0022
vn -0.9532 -0.3025 -0.0012
vn -0.7063 -0.1516 0.6914
vn -0.0000 -1.0000 -0.0013
vn -0.7061 -0.1551 0.6909
vn 0.7058 -0.1556 0.6912
vn 0.7060 -0.1521 0.6917
vn 0.4492 0.8612 0.2378
vn 0.9828 0.1699 -0.0726
vn 0.9529 -0.3032 -0.0017
vn 0.5490 0.8059 -0.2217
vn -0.4473 0.8609 0.2424
vn -0.5486 0.8061 -0.2218
vn 0.0132 0.9808 0.1945
vn -0.9819 0.1749 -0.0723
vn -0.4836 0.0127 -0.8752
vn -0.0661 0.1556 -0.9856
vn 0.4820 -0.0219 -0.8759
vn -0.0019 -0.9986 -0.0521
vn -0.7662 0.0220 0.6422
vn -0.4619 -0.2288 0.8569
vn -0.5389 -0.0120 0.8423
vn 0.0436 -0.0491 -0.9978
vn 0.9060 -0.2698 0.3262
vn -0.9463 0.1061 -0.3053
vn 0.0719 -0.0382 -0.9967
vn -0.9732 -0.1584 -0.1664
vn 0.0004 -0.9983 -0.0581
vn 0.0001 0.0529 -0.9986
vn -0.0001 -0.9987 -0.0516
vn -0.0200 0.0038 -0.9998
vn 0.9464 0.1060 -0.3052
vn 0.9742 -0.1404 -0.1766
vn -0.0438 -0.0348 -0.9984
vn -0.0717 -0.0577 -0.9958
vn -0.0004 -0.9983 -0.0578
vn -0.8233 -0.4237 0.3778
vn -0.9061 -0.2697 0.3261
vn -0.5803 -0.4435 0.6831
vn -0.5038 -0.2172 0.8361
vn 0.5037 -0.2172 0.8361
vn 0.5843 -0.4602 0.6684
vn 0.8243 -0.4222 0.3773
vn -0.8970 -0.2141 -0.3868
vn 0.0001 0.0990 -0.9951
vn -0.9604 0.2367 -0.1472
vn 0.0201 0.1540 -0.9879
vn 0.9575 0.2546 -0.1359
vn -0.0003 0.9993 0.0374
vn -0.0000 0.9981 0.0623
vn -0.5316 0.2365 0.8133
vn -0.5651 0.4030 0.7199
vn 0.5616 0.3800 0.7350
vn 0.5316 0.2365 0.8133
vn 0.8214 0.3856 0.4203
vn 0.9540 -0.2459 0.1714
vn 0.0004 0.9993 0.0382
vn 0.0392 0.1111 -0.9930
vn -0.9540 -0.2459 0.1713
vn -0.8222 0.3844 0.4199
vn -0.0391 0.1113 -0.9930
vn 0.8970 -0.2141 -0.3866
vn 0.7661 0.0219 0.6423
vn 0.4618 -0.2289 0.8569
vn 0.5389 -0.0120 0.8423
vn -0.7029 0.6996 0.1281
vn -0.2487 0.8326 0.4948
vn -0.2816 0.9171 -0.2823
vn 0.7394 0.5656 -0.3653
vn 0.9907 0.1357 0.0011
vn 0.6669 0.6179 0.4164
vn 0.7236 -0.3174 0.6129
vn 0.9916 -0.1271 0.0251
vn -0.1352 0.2250 0.9649
vn 0.9960 -0.0893 -0.0006
vn 0.7802 -0.2100 -0.5893
vn 0.2422 0.2229 -0.9443
vn -0.9350 0.0815 -0.3452
vn 0.6373 0.6349 -0.4368
vn -0.8498 -0.4727 -0.2330
vn 0.5966 -0.2157 -0.7730
vn -0.1799 -0.2851 -0.9415
vn 0.3844 0.7661 -0.5151
vn 0.4002 -0.0483 -0.9152
vn -0.0080 0.9646 -0.2637
vn 0.0205 -0.1649 -0.9861
vn -0.0294 -0.1356 -0.9903
vn -0.2014 -0.1885 -0.9612
vn -0.9149 0.3516 -0.1982
vn -0.0342 0.9744 -0.2221
vn 0.0178 0.9855 0.1687
vn -0.9051 0.3476 0.2449
vn -0.9265 0.3311 -0.1790
vn -0.9237 0.3204 0.2099
vn -0.0323 0.9747 0.2213
vn 0.4757 0.2176 0.8523
vn 0.4341 0.7681 0.4708
vn 0.0554 -0.1800 0.9821
vn -0.0168 -0.0776 0.9968
vn -0.4647 -0.1137 0.8782
vn -0.5630 -0.7907 0.2406
vn -0.0130 -0.4930 0.8699
vn 0.0963 -0.9429 -0.3188
vn 0.0194 -0.9278 -0.3726
vn 0.8118 -0.5833 0.0258
vn 0.8072 -0.1309 0.5755
vn 0.7929 -0.2331 0.5629
vn -0.6693 -0.2725 0.6913
vn -0.4262 -0.9046 0.0092
vn -0.2834 -0.6576 0.6981
vn -0.3485 -0.9368 -0.0299
vn -0.6848 -0.7205 0.1091
vn -0.6901 -0.7182 -0.0893
vn -0.4737 -0.8434 -0.2535
vn 0.2294 -0.9710 -0.0668
vn 0.0373 -0.9727 -0.2292
vn 0.0555 0.2268 0.9724
vn 0.0113 0.9291 0.3697
vn 0.6280 -0.0392 0.7772
vn 0.5945 -0.1904 0.7813
vn 0.9291 -0.1160 0.3512
vn 0.5855 0.1194 0.8018
vn -0.5856 0.1194 0.8018
vn -0.9291 -0.1159 0.3511
vn -0.6281 -0.0391 0.7772
vn -0.5946 -0.1903 0.7812
vn -0.0112 0.9291 0.3697
vt 0.740601 0.868683
vt 0.746948 0.870270
vt 0.740601 0.851196
vt 0.746948 0.856445
vt 0.740601 0.851349
vt 0.885601 0.812956
vt 0.808502 0.811834
vt 0.787048 0.854828
vt 0.750916 0.849487
vt 0.809265 0.900818
vt 0.740601 0.883392
vt 0.740601 0.868652
vt 0.746948 0.870972
vt 0.746948 0.856781
vt 0.746948 0.879486
vt 0.720398 0.806427
vt 0.719757 0.763824
vt 0.728271 0.762665
vt 0.749329 0.820374
vt 0.850677 0.893616
vt 0.783417 0.940674
vt 0.784515 0.911957
vt 0.842957 0.983643
vt 0.785004 0.968994
vt 0.909302 0.982544
vt 0.921387 0.930267
vt 0.827972 0.715576
vt 0.829773 0.756653
vt 0.751343 0.711243
vt 0.744537 0.741669
vt 0.911804 0.894287
vt 0.934235 0.716125
vt 0.968658 0.744293
vt 0.774841 0.753479
vt 0.792450 0.806366
vt 0.811920 0.760742
vt 0.936218 0.685608
vt 0.823914 0.682831
vt 0.902252 0.624481
vt 0.943329 0.655182
vt 0.767266 0.669952
vt 0.770782 0.643707
vt 0.719818 0.729126
vt 0.757857 0.727289
vt 0.811920 0.624847
vt 0.813812 0.772430
vt 0.701782 0.744720
vt 0.703918 0.820923
vt 0.709747 0.742828
vt 0.732880 0.819458
vt 0.798553 0.818024
vt 0.849954 0.898245
vt 0.895782 0.900879
vt 0.909973 0.855469
vt 0.954010 0.849579
vt 0.376312 0.582275
vt 0.360996 0.575957
vt 0.384674 0.560089
vt 0.386139 0.603882
vt 0.342468 0.600342
vt 0.330521 0.592496
vt 0.343262 0.562592
vt 0.360996 0.575957
vt 0.368622 0.550049
vt 0.350555 0.547089
vt 0.310326 0.570742
vt 0.301780 0.523748
vt 0.302460 0.555634
vt 0.012024 0.435791
vt 0.012085 0.397980
vt 0.012024 0.433502
vt 0.152924 0.406555
vt 0.011719 0.605072
vt 0.147112 0.555480
vt 0.152557 0.603546
vt 0.011841 0.555389
vt 0.152740 0.507477
vt 0.283010 0.537737
vt 0.168397 0.466085
vt 0.177124 0.547028
vt 0.012024 0.438049
vt 0.075989 0.449799
vt 0.170932 0.416533
vt 0.179382 0.404633
vt 0.153107 0.406067
vt 0.282140 0.427489
vt 0.264832 0.409637
vt 0.494110 0.656555
vt 0.574249 0.615540
vt 0.671783 0.656555
vt 0.266541 0.602142
vt 0.176941 0.580078
vt 0.268646 0.581268
vt 0.582947 0.704285
vt 0.447876 0.640228
vt 0.412506 0.717743
vt 0.383911 0.674561
vt 0.637024 0.762085
vt 0.441101 0.760925
vt 0.364655 0.761810
vt 0.339233 0.873322
vt 0.404236 0.890839
vt 0.189038 0.747382
vt 0.324585 0.653107
vt 0.438660 0.768372
vt 0.455444 0.884735
vt 0.939056 0.348480
vt 0.871033 0.320496
vt 0.869843 0.348511
vt 0.956604 0.319855
vt 0.956990 0.272416
vt 0.387543 0.955658
vt 0.960754 0.348480
vt 0.865173 0.320190
vt 0.855968 0.268614
vt 0.855988 0.348541
vt 0.848602 0.280792
vt 0.832550 0.320892
vt 0.833374 0.333771
vt 0.827034 0.270393
vt 0.990906 0.320770
vt 0.980598 0.272099
vt 0.991730 0.333618
vt 0.844086 0.264954
vt 0.833313 0.224609
vt 0.990295 0.224487
vt 0.959015 0.224396
vt 0.861481 0.184858
vt 0.991730 0.184753
vt 0.833374 0.184875
vt 0.904694 0.224426
vt 0.909271 0.184814
vt 0.960815 0.184753
vt 0.863770 0.273926
vt 0.990234 0.348450
vt 0.831848 0.348572
vt 0.669189 0.950897
vt 0.644409 0.990204
vt 0.582947 0.973846
vt 0.992737 0.438354
vt 0.946350 0.498138
vt 0.993347 0.595825
vt 0.496704 0.950897
vt 0.521939 0.990204
vt 0.946289 0.595825
vt 0.946808 0.595825
vt 0.957113 0.272489
vt 0.938507 0.348480
vt 0.979754 0.272165
vt 0.827032 0.270336
vt 0.855968 0.268614
vt 0.861481 0.184858
vt 0.869293 0.348511
vt 0.528870 0.762085
vt 0.582947 0.876556
vt 0.468170 0.876648
vt 0.455444 0.883728
vt 0.697723 0.873169
vt 0.582947 0.762085
vt 0.280792 0.557098
vt 0.219849 0.624207
vt 0.265594 0.608124
vt 0.188415 0.617004
vt 0.170932 0.416533
vt 0.169837 0.465585
vt 0.283010 0.537737
vt 0.282849 0.427348
vt 0.013519 0.873322
vt 0.173401 0.969543
vt 0.925415 0.422424
vt 0.877808 0.364624
vt 0.287823 0.989691
vt 0.287823 0.989691
vt 0.877808 0.422424
vt 0.877808 0.498138
vt 0.877808 0.538177
vt 0.489197 0.037292
vt 0.500977 0.072968
vt 0.524689 0.020050
vt 0.966003 0.063629
vt 0.995911 0.082886
vt 0.996063 0.008423
vt 0.957092 0.034943
vt 0.898468 0.027863
vt 0.822296 0.002960
vt 0.573639 0.015198
vt 0.572937 0.049652
vt 0.558502 0.073425
vt 0.481537 0.018280
vt 0.345947 0.051056
vt 0.381470 0.100494
vt 0.351440 0.089264
vt 0.351959 0.031586
vt 0.548370 0.048706
vt 0.550201 0.009277
vt 0.539276 0.043854
vt 0.305786 0.009277
vt 0.235901 0.006134
vt 0.113983 0.117981
vt 0.048431 0.022522
vt 0.234955 0.035400
vt 0.199829 0.011230
vt 0.084686 0.133575
vt 0.014618 0.031006
vt 0.031738 0.152496
vt 0.148277 0.033399
vt 0.148272 0.033389
vt 0.111633 0.052887
vt 0.130981 0.076599
vt 0.256531 0.068665
vt 0.002197 0.705505
vt 0.004791 0.649811
vt 0.119751 0.649811
vt 0.040161 0.625702
vt 0.268799 0.136902
vt 0.122345 0.705505
vt 0.304382 0.239105
vt 0.099396 0.734253
vt 0.025177 0.734253
vt 0.269104 0.136993
vt 0.144501 0.169525
vt 0.148315 0.198517
vt 0.231934 0.231903
vt 0.019470 0.184692
vt 0.019867 0.165527
vt 0.062286 0.743866
vt 0.060791 0.199066
vt 0.283142 0.332336
vt 0.833374 0.359406
vt 0.825165 0.364532
vt 0.869598 0.457031
vt 0.808716 0.374786
vt 0.361572 0.289032
vt 0.441315 0.078888
vt 0.480347 0.146515
vt 0.396942 0.119476
vt 0.474701 0.209869
vt 0.400085 0.017395
vt 0.825256 0.475677
vt 0.796600 0.382751
vt 0.567871 0.212982
vt 0.502472 0.117554
vt 0.491943 0.154449
vt 0.847443 0.466339
vt 0.573181 0.133820
vt 0.628174 0.415436
vt 0.601196 0.406891
vt 0.583466 0.456085
vt 0.400696 0.593506
vt 0.534027 0.513824
vt 0.537537 0.579956
vt 0.615570 0.366974
vt 0.641907 0.377350
vt 0.555328 0.510773
vt 0.400696 0.517120
vt 0.518341 0.438568
vt 0.400696 0.438019
vt 0.605530 0.465027
vt 0.624939 0.473053
vt 0.641846 0.371277
vt 0.641876 0.377441
vt 0.628113 0.415527
vt 0.662109 0.385651
vt 0.628845 0.363342
vt 0.586121 0.457031
vt 0.622345 0.359406
vt 0.646454 0.496338
vt 0.394379 0.223480
vt 0.529663 0.239624
vt 0.547607 0.275574
vt 0.548431 0.323676
vt 0.399567 0.367035
vt 0.576538 0.409241
vt 0.727875 0.421997
vt 0.394379 0.275574
vt 0.400696 0.381012
vt 0.727875 0.602203
vt 0.727875 0.511902
vt 0.809265 0.496338
vt 0.600189 0.459106
vt 0.549652 0.488129
vt 0.573120 0.432465
vt 0.400696 0.409515
vt 0.399567 0.290991
vt 0.429596 0.035797
vt 0.536255 0.074371
vt 0.895294 0.071503
vt 0.997559 0.177704
vt 0.910370 0.049866
vt 0.877777 0.032196
vt 0.822296 0.177704
vt 0.084412 0.625702
vt 0.597321 0.006775
vt 0.679199 0.169617
vt 0.599854 0.170197
vt 0.733856 0.176178
vt 0.699855 0.005097
vt 0.700592 0.170593
vt 0.730255 0.216095
vt 0.639954 0.231598
vt 0.806610 0.231781
vt 0.788513 0.170959
vt 0.813171 0.005280
vt 0.702550 0.005103
vt 0.700089 0.005098
vt 0.679718 0.006226
vt 0.638519 0.006500
vt 0.700104 0.005098
vt 0.699868 0.005097
vt 0.702579 0.005103
vt 0.345215 0.407379
vt 0.337555 0.420776
vt 0.386841 0.497498
vt 0.295776 0.425446
vt 0.298401 0.415771
vt 0.780609 0.237976
vt 0.809570 0.342346
vt 0.780609 0.342346
vt 0.691071 0.342346
vt 0.780609 0.261993
vt 0.691071 0.238007
vt 0.780609 0.290497
vt 0.691071 0.260657
vt 0.720581 0.238007
vt 0.805878 0.290497
vt 0.633331 0.290497
vt 0.691071 0.259862
vt 0.603180 0.238007
vt 0.603180 0.342346
vt 0.780609 0.238007
vt 0.795307 0.342346
vt 0.779053 0.240723
vt 0.685660 0.262864
vt 0.779053 0.290497
vt 0.661652 0.239716
vt 0.737579 0.290497
vt 0.588593 0.290497
vt 0.686013 0.261653
vt 0.795309 0.342346
vt 0.849954 0.898245
vt 0.808502 0.811834
vt 0.785004 0.909790
vt 0.842957 0.895844
vt 0.783417 0.936707
vt 0.909302 0.896912
vt 0.921387 0.946594
vt 0.850677 0.981415
vt 0.911804 0.980804
vt 0.784515 0.963989
vt 0.757857 0.727289
vt 0.767266 0.669953
vt 0.221313 0.236460
vt 0.027364 0.194228
vt 0.027260 0.194046
vt 0.239320 0.352116
vt 0.017952 0.287716
vt 0.276622 0.334519
vt 0.032001 0.381428
vt 0.239337 0.352146
vt 0.221362 0.236685
vt 0.276674 0.334377
vt 0.027375 0.194102
vt 0.027421 0.194222
s 0
usemtl waluigi_all_tx
f 2/1/1 3/2/1 1/3/1
f 4/4/2 1/3/2 3/2/2
f 5/5/3 1/3/3 4/4/3
f 1/6/4 5/7/4 6/8/4
f 5/7/5 7/9/5 6/8/5
f 6/8/6 7/9/6 8/10/6
f 8/11/7 7/12/7 10/13/7
f 10/13/8 7/12/8 9/14/8
f 7/12/9 5/5/9 9/14/9
f 8/11/10 10/13/10 28/11/10
f 28/11/11 10/13/11 13/15/11
f 10/16/12 9/17/12 12/18/12
f 11/19/13 10/16/13 12/18/13
f 11/20/14 13/21/14 10/22/14
f 28/11/15 13/15/15 15/11/15
f 13/21/16 14/23/16 3/24/16
f 14/23/17 13/21/17 16/25/17
f 15/11/18 13/15/18 2/1/18
f 13/15/19 3/2/19 2/1/19
f 16/25/20 13/21/20 17/26/20
f 17/26/21 13/21/21 11/20/21
f 19/27/22 17/28/22 18/29/22
f 18/29/23 17/28/23 20/30/23
f 20/31/24 17/26/24 11/20/24
f 21/32/25 17/28/25 19/27/25
f 16/33/26 17/28/26 21/32/26
f 22/34/27 16/35/27 21/36/27
f 22/37/28 21/32/28 23/38/28
f 21/32/29 19/27/29 23/38/29
f 4/39/30 24/40/30 23/38/30
f 23/38/31 24/40/31 22/37/31
f 18/29/32 25/41/32 23/38/32
f 23/38/33 19/27/33 18/29/33
f 25/41/34 4/39/34 23/38/34
f 26/42/35 4/39/35 25/41/35
f 26/43/36 25/44/36 12/18/36
f 4/39/37 26/42/37 9/45/37
f 12/18/38 9/17/38 26/43/38
f 25/44/39 18/46/39 11/19/39
f 12/18/40 25/44/40 11/19/40
f 4/47/41 3/48/41 24/49/41
f 3/48/42 14/50/42 24/49/42
f 24/49/43 14/50/43 22/34/43
f 14/50/44 16/35/44 22/34/44
f 11/19/45 18/46/45 20/51/45
f 28/52/46 15/53/46 27/54/46
f 27/54/47 15/53/47 2/55/47
f 28/52/48 27/54/48 6/8/48
f 8/10/49 28/52/49 6/8/49
f 6/8/50 27/54/50 1/6/50
f 27/54/51 2/55/51 1/6/51
f 9/14/52 5/5/52 4/4/52
f 31/56/53 30/57/53 29/58/53
f 32/59/54 30/57/54 31/56/54
f 33/60/55 30/57/55 32/59/55
f 34/61/56 33/60/56 32/59/56
f 36/62/57 34/61/57 35/63/57
f 37/64/58 36/62/58 35/63/58
f 38/58/59 37/64/59 35/63/59
f 39/65/60 37/64/60 38/58/60
f 29/58/61 39/65/61 38/58/61
f 40/64/62 39/65/62 29/58/62
f 30/57/63 40/64/63 29/58/63
f 41/62/64 40/64/64 30/57/64
f 42/66/65 41/62/65 30/57/65
f 33/60/66 42/66/66 30/57/66
f 34/61/67 42/66/67 33/60/67
f 41/62/68 39/65/68 40/64/68
f 43/67/69 39/65/69 41/62/69
f 42/66/70 43/67/70 41/62/70
f 44/68/71 43/67/71 42/66/71
f 36/62/72 43/67/72 44/68/72
f 39/65/73 43/67/73 36/62/73
f 37/64/74 39/65/74 36/62/74
f 44/68/75 34/61/75 36/62/75
f 42/66/76 34/61/76 44/68/76
f 32/59/77 35/63/77 34/61/77
f 45/56/78 35/63/78 32/59/78
f 38/58/79 35/63/79 45/56/79
f 49/69/80 46/70/80 47/71/80
f 48/72/81 47/71/81 46/70/81
f 46/73/82 51/74/82 48/75/82
f 46/70/83 49/69/83 50/76/83
f 50/76/84 51/74/84 46/73/84
f 51/74/85 50/76/85 52/77/85
f 54/78/86 52/77/86 53/79/86
f 52/77/87 54/78/87 55/80/87
f 52/77/88 55/80/88 51/74/88
f 52/77/89 50/76/89 56/81/89
f 52/77/90 56/81/90 53/79/90
f 53/79/91 58/82/91 57/83/91
f 53/79/92 56/81/92 58/82/92
f 57/83/93 58/82/93 47/71/93
f 58/82/94 49/69/94 47/71/94
f 56/81/95 49/69/95 58/82/95
f 57/83/96 47/71/96 48/72/96
f 60/84/97 57/83/97 48/85/97
f 59/86/98 53/79/98 57/83/98
f 57/83/99 61/87/99 59/86/99
f 61/87/100 57/83/100 60/84/100
f 59/88/101 61/89/101 63/90/101
f 61/91/102 60/92/102 62/93/102
f 64/94/103 59/88/103 63/90/103
f 64/94/104 63/95/104 65/96/104
f 65/96/105 63/95/105 140/97/105
f 66/98/106 64/94/106 65/96/106
f 66/99/107 65/96/107 67/100/107
f 65/96/108 140/97/108 67/100/108
f 67/100/109 68/101/109 72/102/109
f 67/100/110 69/103/110 68/101/110
f 70/104/111 69/103/111 67/100/111
f 67/100/112 140/97/112 70/104/112
f 66/105/113 67/100/113 71/106/113
f 71/106/114 67/100/114 72/102/114
f 72/107/115 76/108/115 71/109/115
f 74/110/116 73/111/116 72/107/116
f 73/111/117 76/108/117 72/107/117
f 72/102/118 68/101/118 75/112/118
f 75/113/119 74/110/119 72/107/119
f 76/108/120 78/114/120 71/109/120
f 73/111/121 77/115/121 76/108/121
f 76/108/122 77/115/122 78/114/122
f 71/109/123 78/114/123 80/116/123
f 77/115/124 79/117/124 78/114/124
f 79/117/125 82/118/125 78/114/125
f 78/114/126 81/119/126 80/116/126
f 78/114/127 82/118/127 81/119/127
f 82/118/128 79/117/128 83/120/128
f 82/121/129 83/122/129 74/110/129
f 82/121/130 74/110/130 81/123/130
f 83/122/131 73/111/131 74/110/131
f 79/117/132 84/124/132 83/120/132
f 83/120/133 84/124/133 86/125/133
f 86/126/134 85/127/134 83/122/134
f 83/122/135 85/127/135 73/111/135
f 86/125/136 84/124/136 88/128/136
f 87/129/137 85/127/137 86/126/137
f 87/130/138 86/125/138 88/128/138
f 77/115/139 90/131/139 88/128/139
f 88/128/140 84/124/140 77/115/140
f 90/131/141 89/132/141 88/128/141
f 73/111/142 85/127/142 90/131/142
f 85/127/143 89/132/143 90/131/143
f 73/111/144 90/131/144 77/115/144
f 85/127/145 91/133/145 89/132/145
f 87/129/146 91/133/146 85/127/146
f 84/124/147 92/134/147 77/115/147
f 92/134/148 79/117/148 77/115/148
f 92/134/149 84/124/149 79/117/149
f 81/123/150 74/110/150 93/135/150
f 80/116/151 81/119/151 93/136/151
f 93/135/152 74/110/152 75/113/152
f 80/137/153 93/138/153 94/139/153
f 93/140/154 99/141/154 94/142/154
f 95/143/155 80/137/155 94/139/155
f 95/143/156 94/139/156 98/144/156
f 94/142/157 99/141/157 96/145/157
f 97/141/158 94/142/158 96/146/158
f 98/140/159 94/142/159 97/141/159
f 101/119/160 95/116/160 98/136/160
f 100/113/161 102/110/161 98/135/161
f 98/135/162 102/110/162 101/123/162
f 104/147/163 102/110/163 103/148/163
f 103/148/164 102/110/164 100/113/164
f 102/110/165 104/147/165 108/149/165
f 101/123/166 102/110/166 105/121/166
f 105/121/167 102/110/167 108/149/167
f 107/117/168 106/114/168 105/118/168
f 105/118/169 106/114/169 101/119/169
f 108/150/170 107/117/170 105/118/170
f 107/117/171 109/151/171 106/114/171
f 108/150/172 111/124/172 107/117/172
f 110/134/173 109/151/173 107/117/173
f 111/124/174 110/134/174 107/117/174
f 112/152/175 109/151/175 111/124/175
f 109/151/176 110/134/176 111/124/176
f 111/124/177 113/125/177 112/152/177
f 113/125/178 111/124/178 108/150/178
f 115/129/179 113/126/179 114/127/179
f 113/126/180 108/149/180 114/127/180
f 113/125/181 115/130/181 112/152/181
f 115/129/182 114/127/182 116/133/182
f 116/133/183 114/127/183 117/132/183
f 117/132/184 118/131/184 112/152/184
f 114/127/185 118/131/185 117/132/185
f 118/131/186 109/151/186 112/152/186
f 104/147/187 118/131/187 114/127/187
f 109/151/188 118/131/188 104/147/188
f 114/127/189 108/149/189 104/147/189
f 104/147/190 119/108/190 109/151/190
f 109/151/191 119/108/191 106/114/191
f 119/108/192 120/153/192 106/114/192
f 104/147/193 103/148/193 119/108/193
f 119/108/194 103/148/194 120/153/194
f 121/154/195 123/155/195 120/156/195
f 120/157/196 122/100/196 121/99/196
f 103/102/197 122/100/197 120/157/197
f 106/114/198 120/153/198 95/116/198
f 120/156/199 123/155/199 95/143/199
f 123/155/200 80/137/200 95/143/200
f 66/98/201 71/158/201 123/155/201
f 123/155/202 71/158/202 80/137/202
f 124/159/203 66/98/203 123/155/203
f 121/154/204 124/159/204 123/155/204
f 121/154/205 64/94/205 124/159/205
f 64/94/206 66/98/206 124/159/206
f 122/100/207 54/97/207 125/96/207
f 122/100/208 125/96/208 121/99/208
f 122/100/209 103/102/209 126/101/209
f 69/103/210 122/100/210 126/101/210
f 69/103/211 127/104/211 122/100/211
f 122/100/212 127/104/212 54/97/212
f 127/160/213 55/80/213 54/78/213
f 60/92/214 55/80/214 127/160/214
f 62/93/215 60/92/215 127/160/215
f 62/161/216 127/104/216 128/161/216
f 127/104/217 69/103/217 70/104/217
f 128/161/216 127/104/216 70/104/216
f 70/160/218 129/92/218 128/93/218
f 128/93/219 129/92/219 61/162/219
f 61/163/220 62/161/220 128/161/220
f 134/164/221 61/87/221 129/84/221
f 131/85/222 134/164/222 129/84/222
f 129/92/223 70/160/223 130/80/223
f 129/92/224 130/80/224 135/74/224
f 131/75/225 129/92/225 135/74/225
f 131/75/226 135/74/226 132/73/226
f 133/71/227 131/85/227 132/70/227
f 134/164/228 131/85/228 133/71/228
f 132/73/229 135/74/229 136/76/229
f 135/74/230 137/77/230 136/76/230
f 137/77/231 138/165/231 139/81/231
f 136/76/232 137/77/232 139/81/232
f 137/77/233 140/166/233 138/165/233
f 130/80/234 140/166/234 137/77/234
f 135/74/235 130/80/235 137/77/235
f 140/166/236 63/167/236 138/165/236
f 138/165/237 63/167/237 134/164/237
f 139/81/238 141/82/238 142/69/238
f 139/81/239 138/165/239 141/82/239
f 142/69/240 136/76/240 139/81/240
f 142/69/241 141/82/241 133/71/241
f 136/76/242 142/69/242 132/70/242
f 132/70/243 142/69/243 133/71/243
f 141/82/244 134/164/244 133/71/244
f 138/165/245 134/164/245 141/82/245
f 130/80/246 70/160/246 140/166/246
f 63/167/247 61/87/247 134/164/247
f 125/96/248 54/97/248 59/95/248
f 126/101/249 103/102/249 100/112/249
f 126/101/250 68/168/250 69/103/250
f 68/168/251 126/101/251 143/169/251
f 143/169/252 126/101/252 100/112/252
f 68/101/253 143/169/253 75/112/253
f 145/170/254 93/140/254 143/171/254
f 143/169/255 93/172/255 75/112/255
f 143/169/256 100/112/256 98/173/256
f 143/171/257 98/140/257 144/170/257
f 145/174/258 143/171/258 144/170/258
f 145/174/259 97/141/259 99/175/259
f 99/141/260 93/140/260 145/170/260
f 97/141/259 145/174/259 144/170/259
f 144/170/261 98/140/261 97/141/261
f 121/99/262 125/96/262 64/94/262
f 125/96/263 59/88/263 64/94/263
f 106/114/264 95/116/264 101/119/264
f 99/175/265 97/141/265 96/176/265
f 60/92/266 48/75/266 51/74/266
f 51/74/267 55/80/267 60/92/267
f 54/78/268 53/79/268 59/86/268
f 50/76/269 49/69/269 56/81/269
f 146/177/270 147/178/270 155/179/270
f 148/180/271 147/181/271 146/182/271
f 148/180/272 146/182/272 149/183/272
f 149/183/273 146/182/273 150/184/273
f 146/182/274 151/185/274 150/184/274
f 156/186/275 151/187/275 146/188/275
f 152/189/276 146/177/276 155/179/276
f 153/190/277 146/191/277 152/192/277
f 154/193/278 146/191/278 153/190/278
f 154/194/279 156/186/279 146/188/279
f 157/194/280 156/186/280 159/195/280
f 157/194/281 158/188/281 156/186/281
f 158/188/282 151/187/282 156/186/282
f 159/195/283 156/186/283 154/194/283
f 157/194/284 159/195/284 160/196/284
f 160/196/285 159/195/285 154/194/285
f 160/197/286 154/193/286 161/198/286
f 162/198/287 160/197/287 161/198/287
f 157/193/288 160/197/288 162/198/288
f 162/199/289 161/199/289 166/200/289
f 163/190/290 157/193/290 162/198/290
f 162/198/291 164/201/291 163/190/291
f 165/202/292 164/201/292 162/198/292
f 165/203/293 162/199/293 167/200/293
f 162/199/289 166/200/289 167/200/289
f 167/200/294 169/204/294 165/203/294
f 168/204/295 169/204/295 167/200/295
f 167/200/295 166/200/295 168/204/295
f 165/203/296 169/204/296 171/205/296
f 169/204/297 168/204/297 171/205/297
f 171/205/298 168/204/298 240/205/298
f 171/206/299 240/207/299 170/208/299
f 171/206/300 170/208/300 172/209/300
f 173/210/301 171/206/301 172/209/301
f 164/201/302 171/206/302 173/210/302
f 164/201/303 165/202/303 171/206/303
f 164/201/304 173/210/304 163/190/304
f 163/190/305 173/210/305 175/192/305
f 176/211/306 173/212/306 174/213/306
f 173/212/307 172/214/307 174/213/307
f 173/210/308 176/215/308 175/192/308
f 174/213/306 177/216/306 176/211/306
f 176/215/309 181/217/309 175/192/309
f 176/211/310 177/216/310 178/218/310
f 176/211/310 178/218/310 182/219/310
f 176/220/311 182/221/311 179/222/311
f 180/223/312 176/220/312 179/222/312
f 181/217/313 176/220/313 180/223/313
f 183/224/314 182/221/314 184/225/314
f 182/221/315 183/224/315 179/222/315
f 182/219/316 178/218/316 184/226/316
f 184/225/317 178/221/317 183/224/317
f 178/221/318 185/222/318 183/224/318
f 183/224/319 185/222/319 187/227/319
f 179/222/320 183/224/320 186/227/320
f 188/223/321 185/222/321 177/215/321
f 177/215/322 185/222/322 178/221/322
f 189/217/323 188/223/323 177/215/323
f 190/228/324 188/223/324 189/217/324
f 192/229/325 190/230/325 191/231/325
f 190/230/326 193/232/326 191/231/326
f 193/233/327 190/228/327 189/217/327
f 195/234/328 194/235/328 193/236/328
f 193/236/329 194/235/329 199/237/329
f 152/238/330 195/234/330 193/236/330
f 198/239/331 193/232/331 196/240/331
f 199/241/332 196/242/332 193/243/332
f 191/231/333 193/232/333 197/244/333
f 189/217/334 152/192/334 193/233/334
f 197/244/335 193/232/335 198/239/335
f 194/245/336 196/242/336 199/241/336
f 198/246/337 201/247/337 200/248/337
f 200/249/338 203/250/338 198/251/338
f 201/247/339 198/246/339 202/252/339
f 202/252/340 198/246/340 196/253/340
f 198/251/341 203/250/341 197/254/341
f 203/250/342 205/255/342 204/256/342
f 203/250/343 204/256/343 197/254/343
f 200/249/344 205/255/344 203/250/344
f 208/250/345 206/256/345 205/255/345
f 206/256/346 207/257/346 205/255/346
f 205/255/347 207/257/347 204/256/347
f 200/249/348 208/250/348 205/255/348
f 209/254/349 206/256/349 208/250/349
f 210/251/350 209/254/350 208/250/350
f 210/251/351 208/250/351 200/249/351
f 209/258/352 210/259/352 212/260/352
f 211/261/353 210/262/353 202/252/353
f 210/262/354 201/247/354 202/252/354
f 212/260/355 210/259/355 211/263/355
f 200/248/356 201/247/356 210/262/356
f 217/264/357 213/265/357 212/260/357
f 213/265/358 209/258/358 212/260/358
f 215/235/359 212/236/359 214/237/359
f 211/242/360 214/241/360 212/243/360
f 216/234/361 175/238/361 212/236/361
f 175/192/362 181/217/362 212/233/362
f 216/234/363 212/236/363 215/235/363
f 212/233/364 181/217/364 217/228/364
f 218/266/365 213/265/365 217/264/365
f 217/228/366 181/217/366 180/223/366
f 213/265/367 218/266/367 223/267/367
f 221/268/368 219/269/368 218/270/368
f 219/271/369 220/272/369 218/273/369
f 223/267/370 218/266/370 220/274/370
f 218/270/371 222/275/371 221/268/371
f 206/256/372 213/265/372 223/267/372
f 224/276/373 206/256/373 223/267/373
f 224/277/374 223/267/374 225/278/374
f 223/267/375 220/274/375 225/278/375
f 226/279/376 224/277/376 225/278/376
f 225/278/377 220/274/377 226/279/377
f 226/280/378 204/256/378 224/281/378
f 191/282/379 204/256/379 226/280/379
f 226/279/380 192/229/380 191/231/380
f 220/274/381 192/229/381 226/279/381
f 227/283/382 206/256/382 224/276/382
f 204/256/383 227/283/383 224/276/383
f 227/283/384 207/257/384 206/256/384
f 207/257/385 227/283/385 204/256/385
f 222/275/386 192/270/386 221/268/386
f 221/284/387 220/272/387 219/271/387
f 228/271/388 220/272/388 221/284/388
f 221/268/389 192/270/389 228/269/389
f 192/273/390 220/272/390 228/271/390
f 229/285/391 175/238/391 216/234/391
f 229/179/392 216/286/392 230/178/392
f 216/286/393 215/245/393 211/242/393
f 230/178/394 216/286/394 211/242/394
f 158/182/395 230/181/395 232/180/395
f 158/177/396 229/179/396 230/178/396
f 230/181/397 231/287/397 232/180/397
f 230/181/398 211/288/398 231/287/398
f 232/180/399 233/183/399 158/182/399
f 231/287/400 233/183/400 232/180/400
f 158/182/401 233/183/401 234/184/401
f 233/183/402 231/287/402 235/289/402
f 234/184/403 233/183/403 235/289/403
f 235/289/404 231/287/404 234/184/404
f 151/185/405 158/182/405 234/184/405
f 234/184/406 236/290/406 151/185/406
f 231/287/407 236/290/407 234/184/407
f 236/290/408 231/287/408 151/185/408
f 231/287/409 202/291/409 237/287/409
f 151/185/410 231/287/410 237/287/410
f 211/288/411 202/291/411 231/287/411
f 237/287/412 196/288/412 147/181/412
f 237/287/413 147/181/413 148/180/413
f 149/183/414 237/287/414 148/180/414
f 238/289/415 237/287/415 149/183/415
f 237/287/416 238/289/416 150/184/416
f 239/290/417 237/287/417 150/184/417
f 151/185/418 237/287/418 239/290/418
f 202/291/419 196/288/419 237/287/419
f 150/184/420 151/185/420 239/290/420
f 150/184/421 238/289/421 149/183/421
f 175/189/422 229/179/422 158/177/422
f 215/245/423 214/241/423 211/242/423
f 206/256/424 209/254/424 213/282/424
f 197/254/425 204/256/425 191/282/425
f 147/178/426 196/242/426 195/286/426
f 195/286/427 196/242/427 194/245/427
f 155/179/428 147/178/428 195/286/428
f 155/285/429 195/234/429 152/238/429
f 177/215/430 152/192/430 189/217/430
f 174/210/431 152/192/431 177/215/431
f 175/192/432 158/191/432 163/190/432
f 240/207/433 242/201/433 174/210/433
f 241/209/434 240/207/434 174/210/434
f 174/213/307 172/214/307 241/292/307
f 242/201/435 153/190/435 174/210/435
f 153/190/436 152/192/436 174/210/436
f 243/202/437 242/201/437 240/207/437
f 243/202/438 161/198/438 242/201/438
f 161/198/439 153/190/439 242/201/439
f 168/204/440 243/203/440 240/205/440
f 166/200/441 243/203/441 168/204/441
f 166/200/442 161/199/442 243/203/442
f 170/208/443 240/207/443 241/209/443
f 172/209/444 170/208/444 241/209/444
f 158/191/445 157/193/445 163/190/445
f 161/198/446 154/193/446 153/190/446
f 245/293/447 247/294/447 244/295/447
f 246/296/448 245/297/448 244/298/448
f 248/299/449 246/296/449 244/298/449
f 244/295/450 247/294/450 248/300/450
f 250/301/451 246/296/451 248/299/451
f 247/298/452 249/296/452 248/299/452
f 249/296/453 250/301/453 248/299/453
f 250/301/454 251/302/454 246/296/454
f 251/302/455 250/301/455 249/296/455
f 246/296/456 251/302/456 252/303/456
f 252/303/457 251/302/457 253/303/457
f 253/303/458 251/302/458 249/296/458
f 253/303/459 254/304/459 252/303/459
f 255/305/460 254/304/460 253/303/460
f 249/296/461 255/305/461 253/303/461
f 247/294/462 245/293/462 255/306/462
f 255/306/463 245/293/463 254/307/463
f 247/298/464 255/305/464 249/296/464
f 252/303/465 245/297/465 246/296/465
f 254/304/466 245/297/466 252/303/466
f 257/306/467 264/293/467 256/294/467
f 258/296/468 257/308/468 256/298/468
f 260/299/469 258/296/469 256/298/469
f 264/293/470 259/295/470 256/294/470
f 256/294/450 259/295/450 260/300/450
f 261/301/471 258/296/471 260/299/471
f 261/301/472 260/299/472 262/296/472
f 262/296/473 260/299/473 259/298/473
f 263/303/474 265/302/474 262/296/474
f 262/296/475 264/309/475 263/303/475
f 259/298/476 264/309/476 262/296/476
f 265/302/477 261/301/477 262/296/477
f 266/303/478 258/296/478 265/302/478
f 258/296/479 261/301/479 265/302/479
f 266/303/480 265/302/480 263/303/480
f 266/303/481 257/308/481 258/296/481
f 267/310/482 257/308/482 266/303/482
f 263/303/483 267/310/483 266/303/483
f 264/309/484 267/310/484 263/303/484
f 267/307/485 264/293/485 257/306/485
f 270/311/486 269/312/486 268/313/486
f 271/314/487 269/312/487 270/311/487
f 272/315/488 271/314/488 270/311/488
f 274/316/489 276/317/489 273/318/489
f 275/319/490 274/316/490 273/318/490
f 276/317/491 278/320/491 277/319/491
f 278/320/492 276/317/492 274/316/492
f 277/319/493 278/320/493 279/321/493
f 278/322/494 274/316/494 279/323/494
f 277/319/495 279/321/495 281/319/495
f 280/324/496 286/325/496 279/326/496
f 281/319/497 279/321/497 286/321/497
f 281/319/498 283/320/498 282/317/498
f 286/321/499 283/320/499 281/319/499
f 283/320/500 284/318/500 282/317/500
f 285/316/501 284/318/501 283/320/501
f 283/322/502 286/327/502 285/316/502
f 286/327/503 287/319/503 285/316/503
f 285/316/504 287/319/504 284/318/504
f 280/328/505 287/319/505 286/327/505
f 288/329/506 287/319/506 280/328/506
f 275/319/507 288/329/507 280/328/507
f 280/328/508 279/323/508 275/319/508
f 279/323/509 274/316/509 275/319/509
f 291/319/510 290/330/510 289/331/510
f 294/321/511 291/319/511 292/319/511
f 293/321/512 290/330/512 291/319/512
f 294/321/513 293/321/513 291/319/513
f 292/319/514 295/330/514 294/321/514
f 296/332/515 294/333/515 295/334/515
f 297/335/516 293/336/516 294/337/516
f 299/329/517 297/328/517 298/319/517
f 297/328/518 294/333/518 298/319/518
f 297/328/519 300/319/519 293/338/519
f 300/319/520 297/328/520 299/329/520
f 293/338/521 300/319/521 301/330/521
f 301/330/522 300/319/522 289/331/522
f 293/338/523 301/332/523 290/334/523
f 301/330/524 289/331/524 290/330/524
f 298/319/525 296/330/525 302/339/525
f 294/333/526 296/330/526 298/319/526
f 295/330/527 302/339/527 296/330/527
f 302/339/528 295/330/528 292/319/528
f 304/312/529 305/311/529 303/313/529
f 306/314/530 305/311/530 304/312/530
f 305/311/531 306/314/531 307/315/531
f 310/13/532 309/11/532 308/11/532
f 311/15/533 310/13/533 308/11/533
f 308/11/534 312/11/534 311/15/534
f 312/53/535 308/340/535 313/54/535
f 313/54/536 308/340/536 314/8/536
f 308/340/537 309/10/537 314/8/537
f 315/9/538 335/341/538 314/8/538
f 335/341/539 316/6/539 314/8/539
f 314/8/540 309/10/540 315/9/540
f 314/8/541 316/6/541 313/54/541
f 316/6/542 317/55/542 313/54/542
f 313/54/543 317/55/543 312/53/543
f 312/11/544 317/1/544 311/15/544
f 311/15/545 317/1/545 318/2/545
f 317/1/546 316/3/546 318/2/546
f 319/47/547 320/49/547 318/48/547
f 318/2/548 316/3/548 319/4/548
f 318/342/549 321/343/549 311/344/549
f 318/48/550 320/49/550 321/50/550
f 311/344/551 321/343/551 323/345/551
f 321/50/552 320/49/552 322/34/552
f 321/50/553 322/34/553 323/35/553
f 323/35/554 322/34/554 324/36/554
f 324/32/555 325/28/555 323/33/555
f 323/345/556 325/346/556 311/344/556
f 325/346/557 329/347/557 311/344/557
f 327/29/558 325/28/558 326/27/558
f 326/27/559 325/28/559 324/32/559
f 328/30/560 325/28/560 327/29/560
f 328/348/561 329/347/561 325/346/561
f 310/16/562 329/19/562 330/18/562
f 311/344/563 329/347/563 310/349/563
f 331/350/564 329/19/564 327/46/564
f 327/46/565 329/19/565 328/51/565
f 329/19/566 331/350/566 330/18/566
f 331/351/567 327/29/567 332/38/567
f 331/350/568 333/43/568 330/18/568
f 319/39/569 331/351/569 332/38/569
f 319/39/570 333/42/570 331/351/570
f 334/45/571 333/42/571 319/39/571
f 333/43/572 334/17/572 330/18/572
f 330/18/573 334/17/573 310/16/573
f 334/14/574 315/12/574 310/13/574
f 319/4/575 335/5/575 334/14/575
f 335/5/576 315/12/576 334/14/576
f 316/3/577 335/5/577 319/4/577
f 327/29/578 326/27/578 332/38/578
f 332/38/579 326/27/579 324/32/579
f 322/37/580 332/38/580 324/32/580
f 320/40/581 319/39/581 332/38/581
f 320/40/582 332/38/582 322/37/582
f 315/12/583 309/11/583 310/13/583
usemtl waluigi_eye_tx
f 338/352/584 337/353/584 336/354/584
f 340/355/585 339/356/585 338/352/585
f 339/356/586 337/353/586 338/352/586
f 338/352/587 341/357/587 340/355/587
f 342/358/588 339/356/588 340/355/588
f 342/358/589 343/359/589 339/356/589
f 345/360/590 343/359/590 344/361/590
f 339/356/591 343/359/591 345/360/591
f 346/362/592 339/356/592 345/360/592
f 347/363/593 346/362/593 345/360/593
